<svg xmlns="http://www.w3.org/2000/svg" viewBox="0 0 188.85 173.14"><defs><style>.cls-1{fill:#331e18;}</style></defs><title>资源 1</title><g id="图层_2" data-name="图层 2"><g id="图层_1-2" data-name="图层 1"><path class="cls-1" d="M148.86,135.59a32.13,32.13,0,0,1-32,32H72a32.13,32.13,0,0,1-32-32V125.17q-2.84.56-5.51,1v9.44A37.59,37.59,0,0,0,72,173.14h44.79a37.59,37.59,0,0,0,37.55-37.55v-9.43c-1.78-.28-3.62-.61-5.51-1Z"/><path class="cls-1" d="M143.35,135.59a26.56,26.56,0,0,1-26.53,26.53H72A26.56,26.56,0,0,1,45.5,135.59V124c-1.89.42-3.72.81-5.51,1.16v10.42a32.13,32.13,0,0,0,32,32h44.79a32.13,32.13,0,0,0,32-32V125.17q-2.68-.53-5.51-1.17Z"/><path class="cls-1" d="M94.42,0A94.53,94.53,0,0,0,0,94.42c0,13.9,3,22.76,9.42,27.87s14.87,5.43,25.06,3.86v-5.58c-17.8,2.89-29-.14-29-26.15a88.91,88.91,0,1,1,177.82,0c0,26-11.17,29-29,26.15v5.58a63.11,63.11,0,0,0,9.54.84c6,0,11.21-1.28,15.51-4.7,6.43-5.11,9.42-14,9.42-27.87A94.53,94.53,0,0,0,94.42,0Z"/><path class="cls-1" d="M45.5,118.36V124c2.06-.46,4.17-.94,6.34-1.44,12.79-2.95,27.28-6.29,42.58-6.29s29.8,3.34,42.58,6.29c2.17.5,4.28,1,6.34,1.44v-5.65c-14-3.16-30.85-7.6-48.92-7.6S59.54,115.19,45.5,118.36Z"/><path class="cls-1" d="M40,119.55c-1.9.39-3.74.74-5.51,1v5.58q2.68-.41,5.51-1Z"/><path class="cls-1" d="M148.86,119.55v5.62c1.89.38,3.73.71,5.51,1v-5.58C152.6,120.29,150.76,119.94,148.86,119.55Z"/><path class="cls-1" d="M143.35,124q2.83.63,5.51,1.17v-5.62c-1.78-.37-3.62-.77-5.51-1.19Z"/><path class="cls-1" d="M45.5,118.36c-1.89.43-3.73.83-5.51,1.19v5.62c1.79-.36,3.63-.75,5.51-1.16Z"/><path class="cls-1" d="M16.28,113.67C12.79,110.89,11,104.42,11,94.42a83.4,83.4,0,1,1,166.8,0c0,10-1.77,16.47-5.26,19.24s-10.12,2.69-18.2,1.31v5.6c17.8,2.89,29-.14,29-26.15a88.91,88.91,0,1,0-177.82,0c0,26,11.17,29,29,26.15V115C26.4,116.36,19.89,116.54,16.28,113.67Z"/><path class="cls-1" d="M94.42,105.24c-16.56,0-31.7,3.49-45.06,6.58l-3.85.88c0,.05,0,.1,0,.15v5.5c14-3.16,30.85-7.6,48.92-7.6s34.89,4.44,48.92,7.6v-5.5c0-.05,0-.1,0-.15l-3.85-.88C126.13,108.74,111,105.24,94.42,105.24Z"/><path class="cls-1" d="M40,113.92c-1.9.4-3.75.76-5.51,1.06v5.6c1.77-.29,3.61-.64,5.51-1Z"/><path class="cls-1" d="M148.86,113.92v5.63c1.9.39,3.74.74,5.51,1V115C152.6,114.68,150.76,114.32,148.86,113.92Z"/><path class="cls-1" d="M143.34,112.7c0,.05,0,.1,0,.15v5.5c1.89.43,3.73.83,5.51,1.19v-5.63Q146.17,113.35,143.34,112.7Z"/><path class="cls-1" d="M45.5,112.85c0-.05,0-.1,0-.15q-2.83.64-5.52,1.21v5.63c1.78-.37,3.62-.77,5.51-1.19Z"/><rect class="cls-1" x="63.76" y="124.91" width="9.97" height="21.36" rx="4.82" ry="4.82"/><rect class="cls-1" x="116.13" y="124.91" width="9.97" height="21.36" rx="4.82" ry="4.82"/></g></g></svg>